<?xml version="1.0" encoding="UTF-8" standalone="no"?>
<!-- Created with Inkscape (http://www.inkscape.org/) -->

<svg
   version="1.1"
   id="svg1"
   width="457.49051"
   height="282.15027"
   viewBox="0 0 457.4905 282.15027"
   xml:space="preserve"
   xmlns="http://www.w3.org/2000/svg"
   xmlns:svg="http://www.w3.org/2000/svg"><defs
     id="defs1" /><g
     id="layer1"
     transform="translate(-33.454065,-60.539918)"
     style="display:inline"><path
       d="m 331.78884,286.04434 v -56.64585 h 14.0266 14.02659 v 21.84912 c 0,14.20326 0.18878,21.85077 0.53948,21.85384 0.29672,0.003 13.77033,0.005 29.94137,0.005 16.17104,0 29.64634,-0.002 29.9451,-0.005 0.36065,-0.003 0.49663,-12.46887 0.40461,-37.09427 l -0.13859,-37.08955 -44.37258,-0.138 -44.37258,-0.13801 V 129.59077 60.53992 h 79.57787 79.57786 l -0.13881,34.9316 -0.13881,34.93161 -8.22713,0.14892 -8.22714,0.14892 V 109.37729 88.05361 H 416.7535 359.29431 l 0.13899,33.31316 0.13898,33.31315 65.68221,0.13702 65.68221,0.13702 v 93.86812 93.86811 h -79.57393 -79.57393 z"
       style="fill:#000000"
       id="path1-2" /><path
       d="M 147.28524,201.61505 V 60.539921 h 84.15953 84.15954 V 201.61505 342.69019 h -24.00705 -24.00705 l 0.005,-68.64937 c 0.003,-37.75716 0.13948,-69.77159 0.34489,-71.48167 0.20541,-1.71008 0.59157,-2.83229 1.07428,-2.83229 0.40374,0 0.65339,1.1252 0.85264,2.83229 0.19925,1.70709 0.24728,26.32683 0.40461,61.63608 l 0.28605,64.19863 8.22714,0.14892 8.22713,0.14892 v -78.77249 -78.77249 l -21.17475,-0.14114 -21.17476,-0.14113 -0.14929,-7.95739 -0.1493,-7.9574 h 12.96205 12.96204 V 121.50164 88.053611 h -39.11672 -39.11671 l 0.13898,33.313159 0.13899,33.31315 12.81274,0.14464 12.81275,0.14463 v 8.0825 8.0825 h -21.31142 -21.31143 l 0.13667,78.62984 0.13668,78.62983 h 8.09226 8.09227 l 0.29238,-64.19863 c 0.16081,-35.30925 0.27478,-60.50504 0.40461,-61.9654 0.13677,-1.53846 0.44339,-2.50297 0.84813,-2.50297 0.4665,0 0.86149,0.91628 1.07897,2.50297 0.18869,1.37664 0.34307,33.54339 0.34307,71.48167 v 68.97869 h -23.73731 -23.7373 z m 58.26428,-87.66615 v -6.47381 h 6.20407 6.20407 v 6.47381 6.47381 h -6.20407 -6.20407 z m 38.84287,0 v -6.47381 h 6.20407 6.20407 v 6.47381 6.47381 h -6.20407 -6.20407 z"
       style="fill:#000000"
       id="path1-54" /><path
       d="M 33.454063,201.61505 V 60.539923 h 49.3628 49.362817 V 201.61505 342.69019 h -49.362817 -49.3628 z"
       style="fill:#000000"
       id="path1-5" /></g><rect
     style="fill:none;fill-rule:evenodd;stroke-width:0.755906;stroke-linecap:square;stroke-miterlimit:20.6;paint-order:markers fill stroke"
     id="rect1"
     width="466.39008"
     height="305.56769"
     x="-3.9254823"
     y="0.10612541" /></svg>
