<?xml version="1.0" encoding="UTF-8"?>
<svg id="Ebene_1" data-name="Ebene 1" xmlns="http://www.w3.org/2000/svg" viewBox="0 0 711.49606 340.15748">
  <g>
    <path d="M368.62237,254.98491h19.61816v18.84863c-1.61523,1.92383-3.61523,3.69336-5.92383,5.23145-3.92383,2.69336-9.69336,5.15527-17.15625,5.15527-16.15625,0-28.46582-12.30957-28.46582-27.69629,0-15.3877,12.30957-27.69727,28.46582-27.69727,7.38574,0,12.77148,2.53906,16.46387,5.23145,2.07715,1.53906,3.92383,3.23145,5.46289,5.15527l-5.38574,5.38477c-1.07715-1.46094-2.46191-2.8457-4.07715-4-2.77051-2.07715-6.9248-4.07812-12.46387-4.07812-11.15527,0-20.00293,8.84766-20.00293,20.00391,0,11.15527,8.84766,20.00293,20.00293,20.00293,4.84668,0,8.46289-1.38477,10.9248-2.84668,1.46191-.84668,2.69238-1.84668,3.69238-2.92383v-8.07812h-11.15527v-7.69336Z"/>
    <path d="M432.48272,277.29643c-1,1.30762-2.30859,2.46094-3.84668,3.46191-2.69336,1.76953-6.46289,3.46191-11.9248,3.46191-10.77148,0-19.23438-8.46289-19.23438-19.23438,0-10.77051,8.46289-19.2334,18.84961-19.2334,10.46289,0,18.0791,7.61719,18.0791,18.08008,0,1.15332-.15332,2.07715-.23047,2.76953l-.1543,1.07715h-28.46582c.84668,5.00098,5.30859,9.23242,11.54004,9.23242,3.30859,0,6.00098-1.23145,7.84766-2.46191,1.07715-.69238,2.07715-1.53906,2.92383-2.53906l4.61621,5.38574ZM426.32745,261.1392c-1.15332-5-4.53906-8.46191-10.00098-8.46191-5.84766,0-9.23242,3.46191-10.77148,8.46191h20.77246Z"/>
    <path d="M442.87139,246.52201h7.69336v5.00098c.8457-1,1.76953-2.00098,2.84668-2.84668,1.8457-1.46191,4.61621-2.92383,8.30859-2.92383h1.92383v8.07812l-1.00098-.15332c-.61523-.07715-1.23047-.23145-2.07715-.23145-5.30859,0-10.00098,4.61621-10.00098,11.15625v18.84863h-7.69336v-36.92871Z"/>
    <path d="M470.56866,246.52201h7.69336v5.38574c.61523-1.1543,1.46191-2.1543,2.46191-3.07812,1.76953-1.53809,4.38477-3.07715,8.30859-3.07715,4.00098,0,6.9248,1.53906,8.77051,3.07715,1.07715.92383,2.00098,1.92383,2.76953,3.07812.69238-1.1543,1.69336-2.1543,2.84668-3.07812,2.07715-1.53809,5.23145-3.07715,9.84766-3.07715,7.30957,0,13.46387,6.15527,13.46387,15.77148v21.92676h-7.69336v-21.92676c0-5.46191-3.38477-8.46289-7.69336-8.46289-5.00098,0-8.84766,3.84668-8.84766,10.00195v20.3877h-7.69336v-21.92676c0-5.46191-3.38574-8.46289-7.69336-8.46289-5.00098,0-8.84766,3.84668-8.84766,10.00195v20.3877h-7.69336v-36.92871Z"/>
    <path d="M559.04717,278.06498c-.76855,1.1543-1.76953,2.1543-2.92285,3.07812-2.07715,1.53809-5.00098,3.07715-9.00195,3.07715-7.38574,0-12.30957-5.00098-12.30957-10.77148,0-6.1543,4.23145-10.38574,10.77148-11.54004l13.46289-2.30762c0-3.92383-3.07715-6.92383-7.69336-6.92383-3,0-5.23145,1.30762-7.00098,2.53809-1,.69238-1.84668,1.53906-2.61523,2.46191l-5.00098-5c1-1.30859,2.23145-2.46289,3.69238-3.46289,2.46191-1.76953,6.00098-3.46191,10.9248-3.46191,9.23242,0,15.3877,6.15527,15.3877,14.2334v23.46484h-7.69434v-5.38574ZM559.04717,265.75541l-10.77051,1.92383c-3.92383.69238-5.77051,2.61523-5.77051,5.00098,0,2.69238,2.23145,5,6.15527,5,5.77051,0,10.38574-4.61523,10.38574-10.77051v-1.1543Z"/>
    <path d="M577.51397,246.52201h7.69336v5.38574c.76953-1.1543,1.69238-2.1543,2.84668-3.07812,1.92285-1.53809,4.76953-3.07715,8.69336-3.07715,8.46289,0,14.61719,6.07812,14.61719,16.15625v21.54199h-7.69336v-21.54199c0-5.46191-3.46191-8.84766-8.46289-8.84766-5.76953,0-10.00098,4.23145-10.00098,10.38672v20.00293h-7.69336v-36.92871Z"/>
    <path d="M619.06085,291.14409c.38477.23047.76953.38477,1.30859.61523.8457.30859,1.8457.53906,3.30762.53906,3.07715,0,5.30859-1.92383,6.54004-5.00098l1.53809-3.84668-15.00195-36.92871h8.46289l10.38574,27.31152,10.38672-27.31152h8.46289l-16.15625,41.16016c-3.07812,7.77051-7.30957,11.9248-13.46387,11.9248-1.76953,0-3.1543-.23047-4.1543-.53809l-1.61621-.61621v-7.30859Z"/>
  </g>
  <g>
    <path d="M340.15655,56.69633h22.31152c10.38574,0,17.69434,7.38574,17.69434,16.92578,0,6.07764-2.61523,9.77051-5.1543,12.15576-1.53906,1.38477-3.23145,2.46191-5.1543,3.23145l12.23242,21.5415h-9.61719l-8.72267-15.64093c-1.50181-2.69295-4.34366-4.362-7.42706-4.362h-7.69988v20.00293h-8.46289v-53.85449ZM362.46807,82.85405c5.65087,0,9.49024-4.03486,9.21781-9.80486-.22989-4.86911-4.34328-8.659-9.21781-8.659h-13.84863s0,18.46386,0,18.46386h13.84863Z"/>
    <path d="M407.0954,72.85259c10.76941.0007,19.23133,8.46262,19.23204,19.23252.00069,10.55952-8.67806,19.23738-19.23758,19.23523-10.76809-.0022-19.22797-8.46208-19.23017-19.22968-.00215-10.55963,8.67608-19.23876,19.23571-19.23807ZM418.63409,92.08647c0-7.00098-5.00098-11.9248-11.54004-11.9248-6.54004,0-11.54102,4.92383-11.54102,11.9248s5.00098,11.9248,11.54102,11.9248c6.53906,0,11.54004-4.92383,11.54004-11.9248Z"/>
    <path d="M435.17706,56.69633h7.69336v22.31104c.76953-1.15381,1.76953-2.15381,3-3.07715,2.07715-1.53857,5.15527-3.07764,9.69434-3.07764,9.23145,0,17.30957,8.07812,17.30957,19.23389s-8.07812,19.23389-17.30957,19.23389c-4.53906,0-7.61719-1.53906-9.69434-3.07764-1.23047-.92334-2.23047-1.92334-3-3.07715v5.38525h-7.69336v-53.85449ZM465.18096,92.08647c0-7.00098-5.00098-11.9248-11.15527-11.9248s-11.15527,4.92383-11.15527,11.9248,5.00098,11.9248,11.15527,11.9248,11.15527-4.92383,11.15527-11.9248Z"/>
    <path d="M498.26825,72.85259c10.76941.0007,19.23133,8.46262,19.23204,19.23252.00069,10.55952-8.67806,19.23738-19.23758,19.23523-10.76809-.0022-19.22797-8.46208-19.23017-19.22968-.00215-10.55963,8.67608-19.23876,19.23571-19.23807ZM509.80694,92.08647c0-7.00098-5.00098-11.9248-11.54004-11.9248-6.54004,0-11.54102,4.92383-11.54102,11.9248s5.00098,11.9248,11.54102,11.9248c6.53906,0,11.54004-4.92383,11.54004-11.9248Z"/>
    <path d="M529.81182,80.93071h-6.9248v-7.30859h4.23145c2.38574,0,3.46289-1.15381,3.46289-4.23145v-8.07812h6.92383v12.30957h8.46289v7.30859h-8.46289v17.31055c0,3.84668,1.76953,5.77002,5.38574,5.77002,1.15332,0,2.15332-.23047,3-.53857l1.23145-.61523v7.30859l-1.61621.61572c-1,.30762-2.38477.53857-4.1543.53857-7.38574,0-11.54004-4.23145-11.54004-12.30957v-18.08008Z"/>
    <path d="M560.58721,57.46586c2.38477,0,4.61621,1.92334,4.61621,4.61621,0,2.69238-2.23145,4.61572-4.61621,4.61572-2.38574,0-4.61621-1.92334-4.61621-4.61572,0-2.69287,2.23047-4.61621,4.61621-4.61621ZM556.74053,73.62211h7.69336v36.92871h-7.69336v-36.92871Z"/>
    <path d="M608.28839,103.62651c-1.1543,1.46191-2.46191,2.69287-4.00098,3.84668-2.46816,1.76361-5.90637,3.52682-10.49218,3.80826-11.03356.67715-20.30171-7.75563-20.50905-18.808-.2055-10.95458,8.33057-19.62086,19.23073-19.62086,5.23145,0,9.07812,1.84668,11.61719,3.69287,1.46094,1.07715,2.76953,2.30811,3.76953,3.61621l-5.38574,5.00049c-.69238-.92285-1.53906-1.76953-2.53906-2.46191-1.76953-1.23096-4.1543-2.53857-7.46191-2.53857-6.54004,0-11.54102,4.92383-11.54102,11.9248s5.00098,11.9248,11.54102,11.9248c3.30762,0,5.84668-1.23096,7.61621-2.69238,1-.76953,1.92285-1.69287,2.76953-2.69287l5.38574,5.00049Z"/>
    <path d="M617.13702,99.39506c.76953,1.00049,1.61621,1.84668,2.61621,2.53906,1.76953,1.23096,4.00098,2.46191,7.00098,2.46191,4.30859,0,6.53906-2.23096,6.53906-4.61621,0-6.15479-19.61816-3.00049-19.61816-16.15625,0-5.77002,5.07812-10.771,13.46387-10.771,4.38477,0,7.69336,1.30811,9.84766,2.53906,1.30762.69238,2.38477,1.53857,3.23145,2.46191l-5.00098,5.00049c-.61523-.53809-1.30762-1.07666-2.1543-1.53857-1.46191-.84619-3.46191-1.53857-5.92383-1.53857-3.92383,0-5.77051,1.92334-5.77051,3.84668,0,6.15479,19.61816,3.07764,19.61816,16.15625,0,6.15479-5.30762,11.54053-14.23242,11.54053-4.92383,0-8.46289-1.69287-10.9248-3.4624-1.46191-1-2.69238-2.15381-3.69238-3.46191l5-5.00098Z"/>
  </g>
  <g>
    <path d="M340.15655,143.14604h8.46289v53.85449h-8.46289v-53.85449Z"/>
    <path d="M361.7005,160.07182h7.69336v5.38525c.76953-1.15381,1.69238-2.15381,2.84668-3.07715,1.92285-1.53857,4.76953-3.07764,8.69336-3.07764,8.46289,0,14.61719,6.07812,14.61719,16.15625v21.54199h-7.69336v-21.54199c0-5.46191-3.46191-8.84717-8.46289-8.84717-5.76953,0-10.00098,4.23145-10.00098,10.38623v20.00293h-7.69336v-36.92871Z"/>
    <path d="M407.8626,185.84477c.76953,1.00049,1.61621,1.84668,2.61621,2.53906,1.76953,1.23096,4,2.46191,7.00098,2.46191,4.30859,0,6.53906-2.23096,6.53906-4.61621,0-6.15479-19.61816-3.00049-19.61816-16.15625,0-5.77002,5.07812-10.771,13.46387-10.771,4.38477,0,7.69336,1.30811,9.84766,2.53906,1.30762.69238,2.38477,1.53857,3.23145,2.46191l-5.00098,5.00098c-.61523-.53857-1.30762-1.07715-2.1543-1.53906-1.46191-.84619-3.46191-1.53857-5.92383-1.53857-3.92383,0-5.77051,1.92334-5.77051,3.84668,0,6.15479,19.61914,3.07764,19.61914,16.15625,0,6.15479-5.30859,11.54053-14.2334,11.54053-4.92383,0-8.46289-1.69287-10.9248-3.4624-1.46191-1-2.69238-2.15381-3.69238-3.46191l5-5.00098Z"/>
    <path d="M443.63995,167.38041h-6.9248v-7.30859h4.23145c2.38574,0,3.46289-1.15381,3.46289-4.23145v-8.07812h6.92383v12.30957h8.46289v7.30859h-8.46289v17.31055c0,3.84668,1.76953,5.77002,5.38574,5.77002,1.15332,0,2.15332-.23096,3-.53857l1.23145-.61523v7.30859l-1.61621.61572c-1,.30762-2.38477.53857-4.1543.53857-7.38574,0-11.54004-4.23145-11.54004-12.30957v-18.08008Z"/>
    <path d="M474.41534,143.91557c2.38477,0,4.61621,1.92334,4.61621,4.61621,0,2.69238-2.23145,4.61572-4.61621,4.61572-2.38574,0-4.61621-1.92334-4.61621-4.61572,0-2.69287,2.23047-4.61621,4.61621-4.61621ZM470.56866,160.07182h7.69336v36.92871h-7.69336v-36.92871Z"/>
    <path d="M493.26592,167.38041h-6.9248v-7.30859h4.23145c2.38574,0,3.46289-1.15381,3.46289-4.23145v-8.07812h6.92383v12.30957h8.46289v7.30859h-8.46289v17.31055c0,3.84668,1.76953,5.77002,5.38574,5.77002,1.15332,0,2.15332-.23096,3-.53857l1.23145-.61523v7.30859l-1.61621.61572c-1,.30762-2.38477.53857-4.1543.53857-7.38574,0-11.54004-4.23145-11.54004-12.30957v-18.08008Z"/>
    <path d="M519.04132,160.07182h7.69336v21.54199c0,5.46191,3.46191,8.84717,8.46289,8.84717,5.76953,0,10.00098-4.23145,10.00098-10.38623v-20.00293h7.69336v36.92871h-7.69336v-5.38525c-.8457,1.15381-1.76953,2.15381-2.92285,3.07715-1.92383,1.53857-4.69336,3.07764-8.61719,3.07764-8.46289,0-14.61719-6.07812-14.61719-16.15625v-21.54199Z"/>
    <path d="M567.51202,167.38041h-6.9248v-7.30859h4.23145c2.38574,0,3.46289-1.15381,3.46289-4.23145v-8.07812h6.92383v12.30957h8.46289v7.30859h-8.46289v17.31055c0,3.84668,1.76953,5.77002,5.38574,5.77002,1.15332,0,2.15332-.23096,3-.53857l1.23145-.61523v7.30859l-1.61621.61572c-1,.30762-2.38477.53857-4.1543.53857-7.38574,0-11.54004-4.23145-11.54004-12.30957v-18.08008Z"/>
    <path d="M625.9837,190.84575c-1,1.30811-2.30859,2.46191-3.84668,3.46191-2.69336,1.76953-6.46289,3.4624-11.9248,3.4624-10.77148,0-19.23438-8.46289-19.23438-19.23389s8.46289-19.23389,18.84961-19.23389c10.46289,0,18.0791,7.6167,18.0791,18.08008,0,1.15381-.15332,2.07715-.23047,2.76953l-.1543,1.07715h-28.46582c.84668,5.00049,5.30859,9.23193,11.54004,9.23193,3.30859,0,6.00098-1.23096,7.84766-2.46191,1.07715-.69238,2.07715-1.53857,2.92383-2.53857l4.61621,5.38525ZM619.82842,174.6895c-1.1543-5.00098-4.53906-8.46289-10.00098-8.46289-5.84766,0-9.23242,3.46191-10.77148,8.46289h20.77246Z"/>
  </g>
  <path d="M283.0341,161.57208h-.18121c-66.72919-.19904-104.27026-32.83082-104.27026-104.87917h-17.00787v69.45031c0,21.88976-8.93195,35.39096-36.70062,35.42886H56.69291v17.01332h68.18121c27.76868.0379,36.70062,13.53911,36.70062,35.42886v69.45031h17.00787c0-72.04835,37.54108-104.68013,104.27026-104.87917h.61163v-17.01332h-.43042Z"/>
</svg>