<?xml version="1.0" encoding="UTF-8" standalone="no"?>
<!-- Created with Inkscape (http://www.inkscape.org/) -->

<svg
   xml:space="preserve"
   id="svg1"
   version="1.1"
   viewBox="0 0 163.23203 61.737381"
   height="61.737381mm"
   width="163.23203mm"
   xmlns="http://www.w3.org/2000/svg"
   xmlns:svg="http://www.w3.org/2000/svg"><defs
     id="defs1"><style
       id="style1">.cls-1{fill:#000;}.cls-1,.cls-2{stroke-width:0px;}.cls-2{fill:#fff;}</style></defs><g
     id="layer2"
     style="display:inline"
     transform="translate(-980.86234,-1048.1309)"><g
       id="g6"
       transform="matrix(1.3426997,0,0,1.3426997,962.44054,1037.1475)"
       style="display:inline;fill:#1a1a1a;fill-opacity:1;stroke-width:1.06321"><path
         class="cls-1"
         d="m 61.35,13.79 v 0.75 h 2.37 v 7.33 h 0.89 V 14.54 H 67 v -0.75 z m 7.46,0 v 8.08 h 4.39 v -0.75 h -3.49 v -3.06 h 3.16 v -0.75 h -3.16 v -2.77 h 3.49 v -0.75 z m 10.35,0.51 c 0.77,0 1.46,0.16 2.09,0.58 l 0.34,-0.65 c -0.76,-0.4 -1.51,-0.61 -2.44,-0.61 -2.39,0 -4.27,1.72 -4.27,4.18 0,2.63 1.88,4.18 4.27,4.18 0.82,0 1.68,-0.32 2.4,-0.72 l -0.32,-0.58 c -0.63,0.35 -1.36,0.61 -2.08,0.61 -1.96,0 -3.35,-1.56 -3.35,-3.5 0,-1.94 1.38,-3.5 3.35,-3.5 v 0 z m 4.48,-0.51 v 8.08 h 0.9 V 18 h 4.4 v 3.87 h 0.9 v -8.08 h -0.9 v 3.47 h -4.4 v -3.47 z m 10.02,-0.18 -0.94,0.24 v 8.02 h 0.86 v -6.93 c 0,0 4.74,7.11 4.74,7.11 l 0.95,-0.26 V 13.8 h -0.84 l -0.02,6.93 -4.77,-7.12 v 0 z m 8.9,0.18 v 8.08 h 0.9 v -8.08 z m 5.5,7.59 c -0.63,0 -1.27,-0.27 -1.72,-0.57 l -0.36,0.59 c 0.65,0.39 1.3,0.6 2.14,0.6 1.76,0 2.57,-1.1 2.57,-2.28 0,-1.18 -0.87,-1.75 -1.8,-2.19 L 108.21,17.2 C 107.62,16.9 107,16.52 107,15.76 c 0,-1.05 0.86,-1.52 1.6,-1.52 0.74,0 1.25,0.27 1.71,0.57 l 0.31,-0.59 c -0.62,-0.36 -1.31,-0.59 -2.07,-0.59 -1.42,0 -2.41,0.86 -2.41,2.07 0,1.69 1.24,1.99 2.43,2.57 0.65,0.32 1.19,0.71 1.19,1.54 0,0.97 -0.71,1.58 -1.71,1.58 v 0 z m 8.87,-7.08 c 0.77,0 1.46,0.16 2.09,0.58 l 0.34,-0.65 c -0.76,-0.4 -1.51,-0.61 -2.44,-0.61 -2.39,0 -4.27,1.72 -4.27,4.18 0,2.63 1.88,4.18 4.27,4.18 0.82,0 1.68,-0.32 2.4,-0.72 L 119,20.68 c -0.63,0.35 -1.36,0.61 -2.08,0.61 -1.96,0 -3.35,-1.56 -3.35,-3.5 0,-1.94 1.39,-3.5 3.35,-3.5 v 0 z m 4.75,-0.51 v 8.08 h 0.9 V 18 h 4.4 v 3.87 h 0.9 v -8.08 h -0.9 v 3.47 h -4.4 v -3.47 z m 9.09,0 v 8.08 h 4.4 v -0.75 h -3.49 v -3.06 h 3.16 v -0.75 h -3.16 v -2.77 h 3.49 V 13.79 Z M 68.56,32.46 v -5.3 h -0.9 v 5.17 c 0,1.81 -0.87,2.38 -2.27,2.38 -1.53,0 -2.17,-0.83 -2.17,-2.38 v -5.17 h -0.93 l 0.02,5.38 c 0,1.84 1.08,2.84 3.08,2.84 1.52,0 3.17,-0.49 3.17,-2.92 z m 3.49,-5.48 -0.94,0.24 v 8.02 h 0.86 v -6.93 c 0,0 4.74,7.11 4.74,7.11 l 0.95,-0.26 V 27.17 H 76.82 L 76.8,34.1 72.03,26.99 v 0 z m 8.46,0.18 v 8.08 h 0.9 v -8.08 z m 3.53,-0.13 -0.88,0.28 3.08,7.93 h 0.89 l 3.1,-7.92 -0.86,-0.29 -2.67,7.25 -2.68,-7.25 v 0 z m 7.95,0.13 v 8.08 h 4.39 v -0.75 h -3.49 v -3.06 h 3.15 V 30.68 H 92.89 V 27.9 h 3.49 v -0.75 h -4.39 z m 8.49,3.94 H 99.4 v -3.24 h 1.3 c 1.39,0 1.81,0.68 1.81,1.61 0,1.29 -1.01,1.63 -2.03,1.63 z m 0.46,-3.94 H 98.5 c 0,0 0,8.08 0,8.08 h 0.91 v -3.48 h 0.74 c 0.6,0 0.9,0.22 1.26,0.65 l 0.35,0.44 1.9,2.58 0.79,-0.47 -1.6,-2.12 c -0.31,-0.39 -0.74,-1.15 -1.26,-1.27 V 31.4 c 1.12,-0.15 1.77,-0.8 1.77,-2.1 0,-1.31 -0.89,-2.16 -2.41,-2.16 v 0 z m 6.72,7.64 c -0.63,0 -1.27,-0.27 -1.72,-0.57 l -0.36,0.59 c 0.65,0.39 1.3,0.6 2.14,0.6 1.76,0 2.57,-1.1 2.57,-2.28 0,-1.18 -0.87,-1.75 -1.8,-2.19 l -0.68,-0.33 c -0.59,-0.3 -1.21,-0.68 -1.21,-1.44 0,-1.05 0.86,-1.52 1.6,-1.52 0.74,0 1.25,0.27 1.71,0.57 l 0.31,-0.59 c -0.62,-0.36 -1.31,-0.59 -2.07,-0.59 -1.42,0 -2.41,0.86 -2.41,2.07 0,1.69 1.24,1.99 2.43,2.57 0.65,0.32 1.19,0.71 1.19,1.54 0,0.97 -0.71,1.58 -1.71,1.58 v 0 z m 5.06,-7.64 v 8.08 h 0.9 v -8.08 z m 2.67,0 v 0.75 h 2.37 v 7.34 h 0.89 v -7.34 h 2.39 v -0.75 z m 9.75,0.81 1.49,4 h -3.02 z m 3.67,7.17 -3.2,-7.99 h -0.95 l -3.29,7.99 0.89,0.31 1.09,-2.83 h 3.52 l 1.05,2.84 z m -1.34,-8.49 h -0.81 v 1.06 h 0.81 z m -3.83,1.05 v -1.06 h -0.8 v 1.06 z m 6,-0.54 v 0.75 h 2.37 v 7.34 h 0.89 v -7.34 h 2.39 V 27.16 Z M 64.39,47.91 h -1.18 v -6.68 h 1.36 c 2.24,0 3.71,1.15 3.71,3.29 0,2.14 -1.5,3.39 -3.9,3.39 v 0 z m 0.38,-7.39 H 62.3 v 8.08 h 2.19 c 2.8,0 4.65,-1.42 4.65,-4.15 0,-1.98 -1.13,-3.93 -4.38,-3.93 v 0 z m 9.39,0.82 1.49,4 h -3.02 z m 3.67,7.17 -3.2,-7.99 h -0.95 l -3.29,7.99 0.89,0.31 1.09,-2.83 h 3.52 l 1.05,2.84 z m 4.14,-4.05 h -1.08 v -3.24 h 1.3 c 1.39,0 1.81,0.68 1.81,1.61 0,1.29 -1.01,1.63 -2.03,1.63 z m 0.45,-3.93 h -2.44 c 0,0 0,8.08 0,8.08 h 0.91 v -3.48 h 0.74 c 0.6,0 0.9,0.22 1.26,0.65 l 0.35,0.45 1.9,2.58 0.79,-0.47 -1.6,-2.12 c -0.31,-0.39 -0.74,-1.15 -1.26,-1.27 v -0.17 c 1.12,-0.15 1.77,-0.8 1.77,-2.1 0,-1.32 -0.89,-2.16 -2.41,-2.16 v 0 z m 8.48,0 h -0.99 l -2.26,7.99 0.87,0.23 1.9,-7.02 2.05,6.87 h 1.01 l 2.08,-6.89 1.88,7.03 0.86,-0.23 -2.25,-7.99 h -0.99 l -2.09,7.04 -2.08,-7.04 v 0 z m 11.26,7.61 c -0.63,0 -1.27,-0.27 -1.72,-0.57 l -0.36,0.59 c 0.65,0.39 1.3,0.6 2.14,0.6 1.76,0 2.57,-1.1 2.57,-2.28 0,-1.18 -0.87,-1.75 -1.8,-2.19 l -0.68,-0.33 c -0.59,-0.3 -1.21,-0.68 -1.21,-1.44 0,-1.05 0.86,-1.52 1.6,-1.52 0.74,0 1.25,0.27 1.71,0.57 l 0.31,-0.59 c -0.62,-0.36 -1.31,-0.59 -2.07,-0.59 -1.42,0 -2.41,0.86 -2.41,2.07 0,1.69 1.24,1.99 2.43,2.57 0.65,0.32 1.19,0.71 1.19,1.54 0,0.97 -0.71,1.58 -1.71,1.58 v 0 z m 4.14,-7.61 v 0.75 h 2.37 v 7.33 h 0.89 v -7.33 h 2.39 v -0.75 z m 9.85,0.81 1.49,4 h -3.02 z m 3.67,7.17 -3.2,-7.99 h -0.95 l -3.29,7.99 0.89,0.31 1.09,-2.83 h 3.52 l 1.05,2.84 z m 3.94,-0.6 h -1.18 v -6.68 h 1.37 c 2.24,0 3.71,1.15 3.71,3.29 0,2.12 -1.5,3.39 -3.9,3.39 z m 0.37,-7.39 h -2.47 v 8.08 h 2.19 c 2.8,0 4.65,-1.42 4.65,-4.15 0,-1.98 -1.13,-3.93 -4.38,-3.93 v 0 z m 5.48,0.01 v 0.75 h 2.37 v 7.33 h 0.89 v -7.33 h 2.39 v -0.75 z"
         id="path1"
         style="fill:#1a1a1a;fill-opacity:1;stroke-width:0px" /><path
         class="cls-1"
         d="m 34.21,40.62 c -0.66,0 -1.19,0.54 -1.19,1.19 0,0.65 0.54,1.19 1.19,1.19 0.65,0 1.19,-0.54 1.19,-1.19 0,-0.65 -0.54,-1.19 -1.19,-1.19 z m 0.74,1.19 c 0,0.41 -0.33,0.74 -0.74,0.74 -0.41,0 -0.74,-0.33 -0.74,-0.74 0,-0.41 0.33,-0.74 0.74,-0.74 0.41,0 0.74,0.33 0.74,0.74 z"
         id="path2"
         style="fill:#1a1a1a;fill-opacity:1;stroke-width:0px" /><path
         class="cls-1"
         d="m 51.31,32.78 c -0.87,-2.3 -3.65,-10.63 -4.21,-12.31 0.05,-0.03 0.11,-0.08 0.19,-0.12 0.11,-0.07 0.14,-0.15 0.1,-0.28 -0.11,-0.33 -1.97,-5.77 -2.02,-5.92 -0.04,-0.11 -0.1,-0.17 -0.17,-0.19 -0.07,-0.02 -0.15,0 -0.23,0.05 -1.06,0.84 -2.06,1.79 -3.07,2.92 -1.04,-0.35 -2.08,-0.62 -3.1,-0.8 0.45,-0.41 1.06,-0.48 2.08,-0.31 0.21,0.04 0.3,0.01 0.39,-0.14 0.51,-0.85 3.49,-5.79 3.49,-5.79 0.08,-0.16 0.01,-0.28 -0.12,-0.33 -2.43,-0.84 -5.1,-1.38 -7.94,-1.38 -6.57,0 -12.57,2.92 -16.79,7.58 -2.53,2.79 -4.51,6.26 -5.5,10.18 -0.45,1.76 -0.69,3.52 -0.69,5.56 0,2.93 0.63,5.83 1.79,8.53 1.04,2.41 2.54,4.67 4.4,6.71 0.09,0.1 0.25,0.1 0.34,0 0.45,-0.55 3.26,-3.9 3.26,-3.9 0.06,-0.07 0.09,-0.19 0.02,-0.29 -0.31,-0.44 -0.47,-0.87 -0.47,-1.27 0,-0.35 0.1,-0.71 0.26,-1.14 0.15,0.22 0.66,0.89 1.01,1.33 0.45,0.56 0.91,1.17 1.25,1.72 -1.76,1.18 -2.54,2.54 -2.54,3.78 0,1.24 0.62,2.23 1.42,3.06 0.82,0.85 1.95,1.63 3.41,2.3 1.96,0.9 5.06,1.83 9.06,1.83 2.09,0 3.8,-0.26 5.05,-0.51 1.25,-0.26 3.3,-0.78 5.59,-1.89 0.13,-0.06 0.16,-0.13 0.16,-0.23 0,-0.05 -0.02,-0.11 -0.11,-0.18 -0.58,-0.49 -2.81,-1.18 -4.59,-1.68 0.09,-1.1 0.32,-2.21 0.67,-3.33 0.17,0 0.33,0 0.49,0 0.88,0 1.73,-0.08 2.45,-0.24 1.22,-0.26 2.26,-0.76 2.83,-1.4 0.27,-0.3 0.48,-0.74 0.48,-1.18 0,-0.64 -0.4,-1.24 -0.91,-1.77 0.27,-0.37 0.45,-0.51 0.9,-0.53 0.1,0 0.19,-0.1 0.24,-0.26 0.09,-0.27 0.02,-0.65 -0.08,-0.84 -0.11,-0.19 -0.17,-0.28 -0.32,-0.41 0.41,-0.33 0.71,-0.61 0.71,-0.96 0,-0.28 -0.18,-0.55 -0.32,-0.75 -0.28,-0.39 -0.24,-0.56 0.34,-1.12 1.17,-0.09 1.68,-0.47 1.68,-1.26 0,-0.73 -0.56,-1.94 -0.91,-2.86 z m -8.3,18.77 c 0.73,0.19 1.71,0.47 2.28,0.7 -0.68,0.25 -1.38,0.47 -2.1,0.66 -0.09,-0.42 -0.15,-0.88 -0.18,-1.36 z m 4.04,-0.04 c -0.39,0.18 -0.79,0.35 -1.19,0.52 -0.4,-0.24 -1.34,-0.55 -2.87,-0.95 0,-0.31 0,-0.62 0.02,-0.94 1.16,0.32 3.19,0.93 4.05,1.38 z m 3.42,-15.06 c -0.88,-0.21 -1.97,-0.17 -2.74,0.46 -0.19,-0.18 -0.34,-0.42 -0.34,-0.7 0,-0.27 0.17,-0.59 0.5,-0.89 0.06,-0.06 0.09,-0.13 0.07,-0.21 -0.02,-0.08 -0.08,-0.15 -0.16,-0.18 -0.07,-0.02 -0.15,0 -0.21,0.05 -0.49,0.46 -0.64,0.87 -0.64,1.22 0,0.16 0.05,0.36 0.11,0.51 0.1,0.23 0.35,0.57 0.6,0.68 0.1,0.04 0.18,0.04 0.25,-0.04 0.05,-0.05 0.25,-0.21 0.31,-0.25 0.61,-0.38 1.45,-0.33 1.77,-0.29 -0.42,0.45 -0.57,0.86 -0.16,1.43 0.18,0.24 0.25,0.34 0.25,0.42 0,0.2 -0.17,0.44 -0.71,0.83 -0.07,0 -0.14,0 -0.21,0 -0.7,0 -1.48,0.2 -2.34,0.42 -0.21,0.05 -0.38,0.09 -0.59,0.15 0.03,-0.1 0.08,-0.21 0.12,-0.3 0.06,-0.14 -0.01,-0.27 -0.15,-0.29 -0.11,-0.02 -0.19,0.05 -0.26,0.2 -0.08,0.18 -0.29,0.59 -0.19,0.87 0.03,0.1 0.11,0.16 0.2,0.16 0.09,0 0.18,-0.06 0.22,-0.16 0.22,-0.05 0.47,-0.11 0.73,-0.18 0.72,-0.19 1.52,-0.39 2.16,-0.41 0.04,0 0.26,0 0.32,0 0.33,0.17 0.46,0.47 0.41,0.83 -0.27,0.04 -0.52,0.16 -0.71,0.3 -0.26,0.19 -0.44,0.42 -0.49,0.58 -0.04,0.11 -0.02,0.21 0.05,0.27 0.58,0.54 0.89,1.09 0.89,1.59 0,0.36 -0.18,0.68 -0.36,0.9 -0.45,0.54 -1.36,0.98 -2.58,1.23 -1.42,0.3 -3.15,0.31 -4.87,0.01 -1.96,-0.33 -3.89,-1.05 -5.58,-2.07 0.47,-0.49 0.73,-1.14 0.73,-1.82 0,-0.34 -0.06,-0.67 -0.19,-0.98 0.57,-0.68 0.75,-1.67 0.45,-2.57 -0.29,-0.87 -0.94,-1.49 -1.79,-1.7 l 0.06,-0.47 c 2.63,-0.33 4.8,-2.43 5.29,-5.1 0.98,-0.66 1.7,-1.36 2.21,-2.16 1.7,-0.76 4.39,-1.36 6.36,-0.59 0.82,2.39 1.36,3.93 1.65,4.7 0.09,0.24 0.52,1.33 0.62,1.61 0.22,0.64 0.38,1.15 0.17,1.47 -0.16,0.25 -0.55,0.38 -1.21,0.43 z m -7.86,13.01 c -0.11,1.06 -0.11,2.4 0.14,3.57 -0.29,0.07 -0.56,0.13 -0.83,0.19 -2.14,-0.76 -7.71,-2.51 -10.32,-3.17 1.66,-1.81 2.24,-4.09 2.22,-5.62 0.13,0.02 0.26,0.03 0.38,0.03 0.56,0 1.1,-0.17 1.55,-0.5 2.86,1.76 5.65,2.27 7.49,2.39 -0.22,0.84 -0.49,1.77 -0.64,3.13 z m -1.58,3.92 c -0.88,0.15 -1.77,0.25 -2.67,0.3 -1.47,-0.68 -5.59,-2.03 -7.98,-2.56 0.3,-0.22 0.59,-0.46 0.86,-0.71 2.25,0.54 7.27,2.11 9.79,2.97 z m 1.04,-42.91 c 0.03,-0.07 0.04,-0.13 0.02,-0.19 -0.02,-0.06 -0.05,-0.1 -0.1,-0.13 -0.05,-0.03 -0.12,-0.04 -0.18,-0.02 -0.05,0.02 -0.11,0.07 -0.15,0.14 -0.05,0.09 -2.36,4.56 -2.36,4.56 -0.3,-0.08 -0.61,-0.14 -0.92,-0.2 l 2.41,-5.62 c 1.15,0.21 2.3,0.51 3.44,0.89 l -3.29,5.45 c -0.4,-0.15 -0.8,-0.28 -1.2,-0.4 l 2.32,-4.48 z m -1.73,-1.54 -2.41,5.62 c -0.33,-0.05 -0.68,-0.09 -1.02,-0.12 0,0 1.3,-4.16 1.38,-4.42 C 38.31,9.93 38.3,9.85 38.27,9.8 38.23,9.73 38.15,9.7 38.08,9.7 37.99,9.7 37.9,9.75 37.87,9.86 37.75,10.24 36.45,14.4 36.45,14.4 36.08,14.38 35.7,14.37 35.33,14.38 l 1.48,-5.74 c 1.17,0 2.36,0.1 3.54,0.29 z M 21.8,30.66 c -0.34,0.32 -0.6,0.62 -0.76,0.83 0,-0.62 0.03,-1.25 0.1,-1.88 z m 2.78,-5.18 c 0.4,0.67 1.01,1.2 1.51,1.58 -0.21,0.15 -0.43,0.3 -0.64,0.47 -0.8,-0.62 -1.88,-1.47 -2.05,-2.54 -0.02,-0.13 -0.09,-0.22 -0.2,-0.23 -0.12,0 -0.19,0.07 -0.23,0.18 -0.25,0.68 -0.3,1.35 -0.17,2.05 -0.36,0.09 -0.83,0.29 -1.26,0.54 0.45,-1.7 1.18,-3.31 2.16,-4.77 0.12,0.91 0.37,1.86 0.88,2.71 z m 13.07,-4.51 c 0,0 -0.06,0.05 -0.07,0.15 -0.03,0.23 -0.01,0.46 0.05,0.67 0.04,0.15 0.11,0.3 0.2,0.43 -0.38,0.55 -0.76,1.13 -1.16,1.75 -0.56,-0.19 -1.12,-0.33 -1.72,-0.44 0,0 1.34,-1.44 1.35,-1.46 l 1.64,-1.77 c 0,0 0.06,-0.08 0.06,-0.12 0.01,-0.07 -0.02,-0.14 -0.07,-0.19 -0.04,-0.04 -0.09,-0.07 -0.15,-0.07 -0.05,0 -0.1,0.01 -0.15,0.05 -0.25,-0.38 -0.27,-0.79 -0.05,-1.08 0.22,-0.29 0.62,-0.39 1.04,-0.26 -0.03,0.25 -0.01,0.52 0.06,0.8 0.02,0.06 0.05,0.1 0.08,0.13 0.04,0.03 0.1,0.04 0.16,0.04 0.07,0 0.14,-0.04 0.17,-0.09 0.03,-0.05 0.05,-0.11 0.03,-0.19 -0.18,-0.73 0.09,-1.16 0.41,-1.32 0.37,-0.19 0.84,-0.06 1.17,0.33 -0.42,0.51 -0.99,1.26 -1.27,1.63 -0.28,0.37 -0.7,0.96 -1.08,1.5 -0.25,-0.1 -0.36,-0.17 -0.46,-0.28 -0.05,-0.06 -0.1,-0.12 -0.15,-0.17 -0.03,-0.04 -0.06,-0.05 -0.1,-0.04 z m -6.58,9.08 c 0.48,-0.09 1,-0.17 1.51,-0.21 0.08,0.05 0.15,0.1 0.22,0.15 -0.31,0.47 -0.6,0.89 -0.88,1.31 -0.19,-0.44 -0.47,-0.87 -0.85,-1.26 z m -5.38,2.75 c 0,-1.88 1.72,-3.3 4.07,-4.09 0.64,0.2 1.57,0.5 2.1,0.75 -1.95,0.25 -3.22,0.76 -4.17,1.54 -0.6,0.5 -0.95,1.08 -0.95,1.73 0,0.85 0.5,1.5 1.3,1.5 0.8,0 1.28,-0.58 1.28,-1.25 0,-0.81 -0.66,-1.39 -1.45,-1.54 0.23,-0.21 0.61,-0.48 0.98,-0.68 0.49,0.24 0.95,0.66 1.18,1.09 0.32,0.58 0.34,1.2 0.22,1.75 -0.31,0.41 -0.6,0.79 -0.9,1.17 -0.45,0.26 -0.9,0.37 -1.24,0.37 -1.53,0 -2.41,-1.01 -2.41,-2.36 z m 2.42,2.81 c 0.22,0 0.46,-0.04 0.64,-0.09 -0.3,0.36 -0.58,0.69 -0.89,1.02 -1.56,-0.15 -2.44,-0.75 -3.01,-1.54 -0.29,-0.41 -0.55,-0.96 -0.6,-1.74 -0.14,-2.18 1.3,-4.2 3.56,-5.23 0.37,0.15 0.74,0.3 1.24,0.47 -1.09,0.43 -1.93,0.95 -2.54,1.54 -0.68,0.67 -1.28,1.62 -1.28,2.76 0,1.57 1.05,2.82 2.87,2.82 z m -4.73,-7.09 c 0.12,0.22 0.25,0.44 0.4,0.68 -0.11,0.14 -0.21,0.28 -0.32,0.42 -0.15,0.04 -0.31,0.11 -0.47,0.18 l -0.44,-0.89 0.82,-0.4 z m -0.16,-2.69 c 0.4,0.79 1.12,1.39 1.89,1.99 -0.39,0.33 -0.72,0.68 -1.02,1.02 -0.37,-0.56 -0.66,-1.17 -0.79,-1.71 -0.1,-0.44 -0.13,-0.82 -0.08,-1.29 z m 5.65,7.15 c 0,0.52 -0.4,0.81 -0.8,0.81 -0.51,0 -0.87,-0.39 -0.87,-1.05 0,-0.31 0.12,-0.61 0.31,-0.88 0.63,0 1.37,0.42 1.37,1.12 z m 1.67,-2.81 c 0.53,0.46 0.98,1.2 1.06,1.6 -0.3,0.43 -0.56,0.8 -0.83,1.16 -0.01,-0.56 -0.18,-1.03 -0.41,-1.4 -0.3,-0.47 -0.7,-0.8 -1.01,-0.99 0.53,-0.21 0.95,-0.33 1.19,-0.38 z m -1.09,-2.03 c 0.23,0 0.5,-0.01 0.76,-0.02 1.24,-0.04 2.79,-0.1 3.73,0.11 -0.29,0.46 -0.59,0.92 -0.9,1.39 -0.08,-0.06 -0.19,-0.13 -0.3,-0.2 -0.42,-0.26 -1.1,-0.56 -1.88,-0.82 -0.28,-0.09 -1.13,-0.37 -1.42,-0.46 z m 1.04,-0.47 c -0.68,0.02 -1.87,0.08 -2.37,0 -0.99,-0.42 -1.67,-0.84 -2.25,-1.36 1.45,0.36 3.51,0.27 4.34,0.26 0.14,0 0.29,0 0.45,0 1.28,-0.02 3.01,-0.07 4.17,0.29 -0.21,0.33 -0.42,0.66 -0.63,0.99 -0.58,-0.16 -1.38,-0.2 -2.25,-0.2 -0.58,0 -1.23,0.02 -1.46,0.03 z m -8.03,0.78 c -0.22,0.11 -0.35,0.21 -0.38,0.31 -0.03,0.09 0,0.22 0.08,0.39 0.07,0.14 0.44,0.88 0.44,0.88 -0.15,0.1 -0.3,0.21 -0.46,0.33 l -0.9,-1.44 c 0.04,-0.25 0.09,-0.5 0.15,-0.75 0.55,-0.39 1.17,-0.65 1.52,-0.74 0.07,0.22 0.16,0.45 0.26,0.68 0,0 -0.41,0.2 -0.72,0.34 z m 1.84,0.83 c 0.54,-0.65 1.44,-1.46 2.2,-1.95 0.24,0.15 0.53,0.31 0.8,0.44 -2.41,1.24 -3.95,3.67 -3.37,6.26 -0.49,0.49 -0.75,0.75 -1.53,0.8 0.48,-0.7 0.43,-1.94 0.5,-2.5 0.19,-1.45 0.7,-2.19 1.41,-3.06 z m -0.97,5.81 c 0.24,-0.12 0.53,-0.32 0.77,-0.55 0.53,1.26 1.72,2.18 3.38,2.41 -0.3,0.33 -0.61,0.64 -0.9,0.93 -0.92,-0.47 -1.55,-0.78 -2.07,-1.23 -0.5,-0.44 -0.81,-0.86 -1.18,-1.56 z m 8.69,-8.99 c -0.92,0 -3,0.07 -4.17,0 -1.13,-0.07 -1.93,-0.19 -2.62,-0.48 -0.36,-0.47 -0.61,-1.04 -0.81,-1.6 0.64,0.56 1.6,0.88 2.64,1.04 0.77,0.12 1.61,0.15 2.47,0.15 0.04,0 0.79,0 1.16,-0.02 1.6,-0.04 3.6,-0.08 4.93,0.42 -0.18,0.28 -0.36,0.56 -0.54,0.84 -0.88,-0.27 -1.8,-0.35 -3.06,-0.35 z m -2.55,-1.35 c -0.84,0 -1.62,-0.04 -2.32,-0.14 -1.28,-0.19 -2.27,-0.6 -2.92,-1.43 -0.06,-0.31 -0.1,-0.63 -0.13,-0.97 0.05,-0.07 0.11,-0.15 0.16,-0.21 0.54,0.71 1.24,1.15 1.94,1.38 0.63,0.21 1.45,0.36 3.14,0.35 1.7,-0.01 3.55,-0.08 5.1,0.16 0.78,0.12 1.36,0.26 1.98,0.46 -0.19,0.29 -0.37,0.58 -0.56,0.86 -1.04,-0.42 -2.44,-0.51 -3.76,-0.51 -0.47,0 -2.27,0.04 -2.63,0.04 z m -2.52,-5.46 c 0.28,0.49 0.63,0.88 1.17,1.24 0.44,0.29 1.03,0.46 1.48,0.46 0.19,0 0.39,-0.02 0.59,-0.07 0.32,0.34 0.72,0.61 1.16,0.78 -0.36,0.17 -0.95,0.28 -1.61,0.28 -1.02,0 -2.22,-0.29 -2.86,-1 -0.02,-0.02 -0.07,-0.06 -0.1,-0.08 -0.04,-0.03 -0.1,-0.06 -0.16,-0.08 -0.16,-0.04 -1.09,-0.29 -1.09,-0.29 0.47,-0.46 0.99,-0.9 1.4,-1.24 z m 10.2,-0.85 c 0,0.46 -0.33,0.75 -0.78,0.8 0,-0.05 0,-0.1 -0.03,-0.13 -0.04,-0.06 -0.11,-0.1 -0.18,-0.1 -0.05,0 -0.09,0 -0.13,0.03 -0.05,0.03 -0.1,0.09 -0.11,0.17 0,0.05 -0.1,0.71 -0.12,0.93 -0.1,0.03 -0.19,0.05 -0.31,0.05 -0.07,0 -0.22,-0.01 -0.33,-0.03 -0.06,-0.01 -0.11,-0.02 -0.14,0.02 -0.03,0.03 -0.02,0.09 0,0.13 0.12,0.29 0.41,0.41 0.74,0.49 -0.01,0.42 0.02,0.77 0.1,1.1 l -1.45,1.56 c -0.16,-0.02 -0.33,-0.04 -0.49,-0.06 0,0 1.01,-4.08 1.04,-4.23 0.01,-0.06 0,-0.11 -0.01,-0.16 -0.03,-0.06 -0.09,-0.1 -0.15,-0.12 -0.05,-0.01 -0.11,0 -0.16,0.02 -0.05,0.02 -0.09,0.07 -0.11,0.15 v 0.02 c -0.33,-0.12 -0.57,-0.54 -0.54,-0.92 0.03,-0.32 0.25,-0.54 0.6,-0.6 0.1,0.23 0.29,0.46 0.55,0.68 0.07,0.06 0.14,0.07 0.21,0.05 0.08,-0.03 0.14,-0.1 0.16,-0.18 0.01,-0.08 -0.01,-0.15 -0.08,-0.21 -0.19,-0.15 -0.31,-0.34 -0.38,-0.47 -0.13,-0.23 -0.1,-0.44 -0.03,-0.61 0.15,-0.33 0.6,-0.53 1,-0.45 0.4,0.08 0.65,0.4 0.7,0.88 -0.23,-0.06 -0.48,-0.07 -0.75,-0.02 -0.07,0.01 -0.11,0.04 -0.14,0.07 -0.04,0.04 -0.05,0.09 -0.05,0.15 0,0.08 0.04,0.16 0.1,0.2 0.04,0.03 0.1,0.04 0.17,0.03 0.09,-0.02 0.17,-0.02 0.27,-0.02 0.47,0 0.83,0.36 0.83,0.82 z m -7.27,2.08 c -1.12,0.15 -2.17,-0.7 -2.57,-1.5 0.8,-0.58 1.66,-1.08 2.56,-1.48 -0.61,0.99 -0.61,2.07 0,2.98 z M 29.9,19.3 c -0.09,-0.86 0.32,-1.58 0.79,-2.09 0.51,-0.19 1.04,-0.35 1.57,-0.48 l 0.15,1.64 c 0,0 -0.69,-0.49 -0.82,-0.58 -0.11,-0.08 -0.22,-0.05 -0.29,0.01 -0.07,0.06 -0.11,0.17 -0.05,0.27 -0.29,0.28 -0.45,0.66 -0.45,1.06 0,0.81 0.66,1.48 1.48,1.48 0.11,0 0.22,-0.01 0.33,-0.04 l 0.08,0.89 C 31.27,21.58 30.02,20.5 29.9,19.3 Z m 3.03,-0.23 c -0.02,-0.27 -0.22,-2.45 -0.22,-2.45 0.67,-0.14 1.37,-0.24 2.08,-0.28 -0.2,0.22 -0.31,0.48 -0.3,0.75 -0.51,0.08 -0.95,0.45 -0.95,1.1 0,0.65 0.44,1.18 0.87,1.3 l -0.95,3.84 c -0.3,-0.02 -0.61,-0.04 -0.93,-0.05 -0.53,-0.5 -0.68,-1.05 -0.73,-1.33 0.04,-0.03 0.08,-0.06 0.11,-0.09 0.36,0.07 0.71,0.08 1.06,0.02 0.05,0 0.11,-0.04 0.15,-0.09 0.03,-0.04 0.04,-0.09 0.04,-0.16 -0.02,-0.24 -0.15,-1.61 -0.15,-1.61 0,-0.05 -0.02,-0.1 -0.05,-0.13 -0.05,-0.05 -0.12,-0.08 -0.19,-0.07 -0.05,0 -0.11,0.03 -0.15,0.07 -0.04,0.04 -0.06,0.1 -0.06,0.18 v 0.06 c -0.09,0.03 -0.18,0.04 -0.28,0.04 -0.57,0 -1.03,-0.46 -1.03,-1.03 0,-0.3 0.13,-0.58 0.35,-0.78 l 0.85,0.6 v 0.16 c 0.02,0.05 0.04,0.1 0.06,0.13 0.04,0.05 0.11,0.08 0.18,0.08 0.07,0 0.13,-0.03 0.18,-0.08 0.03,-0.04 0.05,-0.09 0.04,-0.16 z m -6.39,2.19 c 0.76,0.84 2.09,1.17 3.26,1.17 0.61,0 1.17,-0.1 1.59,-0.26 0.06,0.28 0.2,0.69 0.52,1.1 -0.59,-0.01 -2.25,0.02 -2.57,0.02 -1.04,0 -1.98,-0.04 -2.85,-0.28 -0.11,-0.45 -0.13,-1.33 0.01,-1.76 h 0.03 z m 9.77,-1.57 c 0.26,0 0.5,-0.07 0.69,-0.18 0.03,0.27 0.14,0.54 0.32,0.79 l -1.09,1.17 c -0.08,-0.58 0,-1.19 0.07,-1.78 z m -10.23,1.44 c -0.15,0.48 -0.14,1.21 -0.07,1.7 -0.6,-0.26 -1.08,-0.65 -1.47,-1.19 0.21,-0.26 0.43,-0.51 0.65,-0.74 l 0.89,0.24 z m -1.2,16.33 c -0.37,0.37 -0.62,0.55 -1.26,0.6 0.07,-0.54 0.04,-1.03 -0.01,-1.7 0.36,0.45 0.79,0.8 1.27,1.1 z M 22.5,31.89 c -0.37,0.12 -0.96,0.51 -1.4,0.82 -0.01,-0.14 -0.02,-0.3 -0.03,-0.48 0.12,-0.22 0.35,-0.52 0.62,-0.83 0.39,-0.43 0.88,-0.88 1.38,-1.14 -0.36,0.68 -0.49,1.19 -0.58,1.63 z M 39.88,17.48 c -0.56,0 -0.96,0.34 -1.13,0.71 -0.42,-0.14 -0.83,-0.1 -1.16,0.09 -0.04,-0.32 -0.19,-0.61 -0.42,-0.81 0.02,-0.46 -0.07,-0.84 -0.25,-1.11 0.36,0.03 0.9,0.08 1.41,0.15 1.19,0.18 2.3,0.48 3.24,0.79 -0.19,0.22 -0.39,0.45 -0.59,0.69 -0.31,-0.32 -0.71,-0.51 -1.11,-0.51 z M 22.43,32.41 c -0.14,1.7 -0.2,2.02 -0.68,2.5 -0.08,0.08 -0.12,0.18 -0.09,0.26 0.03,0.08 0.12,0.13 0.24,0.13 0.46,0 0.76,-0.02 1,-0.07 0.07,0.15 0.15,0.29 0.23,0.42 0,0.19 0.02,0.44 0.04,0.7 0.04,0.66 0.09,1.48 -0.03,1.88 -0.02,0.08 -0.02,0.15 0.02,0.2 0.04,0.05 0.11,0.09 0.19,0.09 0.88,0 1.29,-0.17 1.93,-0.82 0.26,0.15 0.77,0.4 0.97,0.51 -0.74,0.72 -1.52,1.39 -2.32,2 -1.57,-2.1 -2.46,-4.15 -2.77,-6.97 0.29,-0.21 0.91,-0.64 1.27,-0.83 z M 45.27,17.49 c 0.13,0.38 0.54,0.59 0.92,0.46 l 0.17,0.49 c -0.25,0.19 -0.5,0.39 -0.73,0.58 l -1.29,-0.27 0.23,-1.97 c 0.31,-0.3 0.62,-0.59 0.94,-0.86 l 0.22,0.63 c -0.38,0.14 -0.58,0.55 -0.45,0.93 z m -1.53,7.92 c 1.4,-1.07 1.97,-2.22 1.82,-3.74 0.33,-0.28 0.66,-0.55 0.98,-0.79 0.1,1.23 -0.09,2.4 -0.55,3.38 -0.49,1.05 -1.29,1.86 -2.3,2.34 0.04,-0.26 0.07,-0.78 0.05,-1.18 z m -9.53,18.58 c -1.23,0 -2.18,-1.01 -2.18,-2.18 0,-0.62 0.27,-1.23 0.73,-1.63 0.39,-0.34 0.89,-0.55 1.45,-0.55 1.18,0 2.18,0.93 2.18,2.18 0,1.25 -0.99,2.18 -2.18,2.18 z m -6.19,6.33 c -0.46,-0.15 -0.89,-0.35 -1.3,-0.6 1.92,-0.62 3.26,-1.77 3.88,-3.31 0.65,-1.61 0.47,-3.51 -0.52,-5.35 0.25,-0.23 0.5,-0.47 0.74,-0.71 1.34,2.35 1.35,5.09 0.35,6.99 -0.57,1.09 -1.5,2.11 -3.15,2.98 z M 36.8,39.18 c 0,0.41 -0.13,0.86 -0.38,1.21 -0.18,-0.27 -0.4,-0.51 -0.67,-0.71 0.07,-0.22 0.1,-0.36 0.1,-0.58 0,-0.34 -0.12,-0.66 -0.33,-0.9 -0.21,-0.24 -0.53,-0.38 -0.93,-0.38 -0.32,0 -0.64,0.12 -0.91,0.34 -0.06,-0.3 -0.1,-0.61 -0.11,-0.91 0.28,-0.34 0.57,-0.71 0.88,-1.13 0.15,0 0.31,0 0.46,0 l -0.05,0.36 c 0,0 -0.07,0 -0.1,0 -0.05,0 -0.11,0.01 -0.15,0.04 -0.07,0.04 -0.1,0.1 -0.1,0.18 0,0.07 0.02,0.14 0.07,0.18 0.04,0.03 0.08,0.05 0.14,0.05 0.6,0.02 1.11,0.26 1.49,0.69 0.38,0.43 0.57,1 0.57,1.57 z m -2,-3.5 c 0.26,-0.35 0.52,-0.71 0.78,-1.06 1.52,-0.47 2.59,-1.28 3.23,-2.4 0.53,-0.92 0.72,-2.04 0.52,-3.05 0.27,-0.4 0.51,-0.74 0.74,-1.06 0.25,0.87 0.34,1.77 0.17,2.75 -0.21,1.24 -0.83,2.4 -1.77,3.29 -0.93,0.87 -2.22,1.5 -3.66,1.54 z m 3.52,-3.53 c -0.47,0.78 -1.27,1.39 -2.29,1.83 0.5,-0.7 0.98,-1.41 1.4,-2.02 0.27,-0.4 1.28,-1.9 1.52,-2.24 0.06,0.91 -0.23,1.77 -0.63,2.43 z m -4.51,6.53 c 0.2,-0.23 0.47,-0.4 0.79,-0.4 0.25,0 0.47,0.1 0.62,0.27 0.12,0.14 0.19,0.34 0.19,0.58 0,0.11 -0.02,0.21 -0.05,0.32 -0.36,-0.17 -0.74,-0.26 -1.15,-0.26 -0.07,0 -0.15,0 -0.23,0.01 -0.06,-0.16 -0.12,-0.33 -0.17,-0.51 z m -0.28,0.59 c -0.29,0.08 -0.57,0.21 -0.82,0.38 -0.12,-0.29 -0.21,-0.61 -0.28,-1.02 0.24,-0.27 0.49,-0.57 0.74,-0.87 0.06,0.52 0.18,1.03 0.36,1.51 z m -2.39,0.75 c 0.29,-0.3 0.6,-0.63 0.91,-0.97 0.07,0.34 0.17,0.63 0.3,0.89 -0.31,0.31 -0.54,0.7 -0.67,1.12 -0.16,-0.4 -0.35,-0.76 -0.54,-1.05 z m -1.99,6.07 c 0.69,-1.29 0.64,-2.74 -0.14,-4.1 0.24,-0.19 0.48,-0.4 0.73,-0.62 0.9,1.73 1.05,3.54 0.39,4.99 -0.68,1.52 -1.96,2.46 -3.88,3.03 -0.36,-0.28 -0.65,-0.58 -0.88,-0.9 1.6,-0.12 3.05,-1.04 3.78,-2.4 z m -1.27,-0.43 c 0.49,-0.97 0.23,-2.01 -0.12,-2.73 0.29,-0.21 0.59,-0.43 0.89,-0.66 0.68,1.23 0.69,2.58 0.03,3.73 -0.71,1.24 -2.08,2.02 -3.57,2.05 -0.12,-0.26 -0.2,-0.52 -0.23,-0.77 1.7,-0.22 2.6,-0.82 3.01,-1.62 z M 26.4,43.8 c 0.33,-0.19 0.66,-0.4 0.98,-0.61 0.35,0.66 0.68,2.11 -0.56,2.99 0.03,-0.56 -0.01,-1.14 -0.18,-1.69 -0.07,-0.25 -0.15,-0.46 -0.24,-0.68 z m -1.53,3.03 c 0.08,-0.7 0.54,-1.34 1.41,-1.9 0.1,0.49 0.12,0.99 0.06,1.52 -0.4,0.18 -0.9,0.31 -1.47,0.38 z M 45.13,22.05 c 0.02,1.11 -0.42,1.98 -1.43,2.82 -0.04,-0.37 -0.1,-0.76 -0.19,-1.17 0.54,-0.6 1.09,-1.16 1.63,-1.65 z m -4.4,7.13 c 1.24,-1.15 1.75,-2.46 1.63,-4.16 0.26,-0.32 0.51,-0.62 0.76,-0.91 0.33,1.73 0.16,3.04 -0.46,4.17 -0.47,0.86 -1.15,1.52 -1.92,2.09 0.03,-0.37 0.03,-0.85 -0.01,-1.2 z m -0.34,-1.54 c 0.3,-0.44 1.31,-1.77 1.55,-2.08 -0.04,1.26 -0.43,2.19 -1.29,3.07 -0.06,-0.33 -0.15,-0.66 -0.26,-0.99 z m 2.83,0.56 c 0.16,-0.34 0.28,-0.7 0.37,-1.08 2.2,-0.92 3.37,-2.94 3.42,-5.49 0.43,1.29 1.24,3.7 2.04,6.06 -1.58,-0.48 -3.76,-0.3 -5.83,0.5 z m -0.15,-4.68 c -1.1,1.21 -2.27,2.82 -3.13,4 -0.47,0.65 -1.84,2.65 -2.22,3.21 -0.79,1.16 -1.92,2.8 -2.49,3.59 -1.69,2.36 -3.25,4.26 -4.73,5.7 -0.9,0.88 -2.15,2.09 -4.29,3.36 -0.13,-0.26 -0.34,-0.6 -0.47,-0.79 5.05,-3.31 8.67,-8.9 11.08,-12.36 2.66,-3.82 5.57,-8.16 9.69,-11.34 l 0.4,1.16 c -0.23,0.15 -0.92,0.63 -1.81,1.41 -0.83,0.73 -1.54,1.51 -2.04,2.05 z M 31.1,35.66 c 1.83,-2.35 3.52,-5.04 5.16,-7.64 2.37,-3.77 4.83,-7.68 7.79,-10.72 l -0.18,1.56 c -0.01,0.13 -0.02,0.19 0.02,0.23 0.03,0.04 0.07,0.05 0.18,0.08 l 1.12,0.23 c -3.47,2.98 -6.11,6.81 -8.67,10.52 -3.11,4.5 -6.33,9.16 -11.04,12.32 -0.18,-0.25 -0.37,-0.5 -0.54,-0.71 2.1,-1.32 4.11,-3.23 6.16,-5.86 z m 4.79,-7.92 c -0.28,0.44 -0.55,0.88 -0.83,1.32 -3.09,4.89 -6.21,9.49 -10.4,12.11 L 24.2,40.58 c 1.56,-1.2 2.84,-2.48 3.83,-3.56 1.03,-1.13 2.57,-3 3.98,-5.07 1.47,-2.15 2.44,-3.67 3.57,-5.45 1.91,-3.01 3.69,-5.75 5.6,-8.05 1.08,-1.3 2.43,-2.75 3.85,-3.9 l 0.31,0.92 c -3.98,3.43 -6.98,8.34 -9.46,12.27 z M 34.86,14.39 c -0.28,0.01 -0.57,0.04 -0.87,0.07 0,0 0.61,-3.96 0.67,-4.37 0.01,-0.08 0,-0.16 -0.03,-0.21 -0.04,-0.06 -0.11,-0.1 -0.18,-0.1 -0.07,0 -0.11,0.02 -0.15,0.05 -0.05,0.05 -0.07,0.12 -0.09,0.25 -0.05,0.34 -0.68,4.43 -0.68,4.43 -0.37,0.05 -0.74,0.12 -1.11,0.2 l 0.39,-5.73 c 1.16,-0.21 2.35,-0.33 3.53,-0.35 l -1.48,5.75 z m 4.58,0.94 c -0.48,0.09 -0.87,0.33 -1.17,0.71 -0.72,-0.11 -1.57,-0.18 -2.56,-0.18 -3.69,0 -6.74,1.31 -8.95,3.01 -2.08,1.6 -3.51,3.52 -4.49,5.46 -1.15,2.31 -1.69,4.74 -1.69,6.9 0,2.89 0.63,5.85 2.42,8.46 -0.21,0.49 -0.37,1.04 -0.39,1.53 -1.61,-2.48 -2.49,-4.94 -2.89,-7.26 -0.7,-4.07 0.22,-8.1 2.25,-11.31 2.45,-3.89 5.66,-5.71 7.62,-6.56 1.97,-0.86 4.07,-1.26 6.05,-1.26 1.46,0 2.74,0.22 3.79,0.5 z M 21.72,40.61 c 0.18,0.3 0.36,0.6 0.54,0.89 0,0 -2.8,2.77 -2.9,2.87 -0.05,0.05 -0.07,0.1 -0.08,0.16 0,0.07 0.01,0.13 0.06,0.18 0.04,0.04 0.1,0.06 0.16,0.06 0.06,0 0.13,-0.03 0.18,-0.08 0.12,-0.12 2.84,-2.81 2.84,-2.81 0.18,0.26 0.36,0.53 0.56,0.79 l -2.99,3.58 c -0.8,-0.89 -1.53,-1.83 -2.17,-2.79 l 3.81,-2.85 z m -1.28,-2.58 c 0.12,0.28 0.24,0.55 0.36,0.81 0,0 -3.06,1.87 -3.21,1.96 -0.07,0.04 -0.11,0.09 -0.13,0.15 -0.02,0.06 -0.02,0.13 0.02,0.19 0.04,0.06 0.1,0.1 0.17,0.1 0.05,0 0.11,-0.01 0.17,-0.05 0.15,-0.09 3.17,-1.93 3.17,-1.93 0.16,0.32 0.33,0.65 0.51,0.96 l -3.83,2.86 c -0.62,-0.97 -1.17,-1.98 -1.62,-3 l 4.4,-2.04 z m -0.92,-2.84 c 0.09,0.38 0.19,0.77 0.31,1.15 0,0 -3.44,1.01 -3.58,1.05 -0.06,0.02 -0.11,0.05 -0.14,0.09 -0.04,0.05 -0.06,0.12 -0.03,0.2 0.02,0.07 0.07,0.12 0.13,0.14 0.05,0.02 0.12,0.02 0.18,0 0.18,-0.05 3.58,-1.05 3.58,-1.05 0.09,0.28 0.19,0.56 0.3,0.84 l -4.41,2.05 c -0.47,-1.12 -0.85,-2.28 -1.12,-3.45 z m 0.93,-10.58 c 0,0 -3.11,-1.91 -3.26,-2 -0.06,-0.04 -0.13,-0.05 -0.18,-0.05 -0.07,0 -0.12,0.05 -0.16,0.11 -0.03,0.05 -0.04,0.11 -0.02,0.16 0.02,0.06 0.06,0.12 0.13,0.16 0.09,0.05 3.32,2.04 3.32,2.04 -0.12,0.3 -0.24,0.61 -0.34,0.91 l -4.36,-2.18 c 0.39,-1.06 0.87,-2.11 1.41,-3.1 l 3.93,2.99 c -0.16,0.31 -0.32,0.63 -0.46,0.96 z m 11.51,-9.79 c -0.31,0.08 -0.63,0.17 -0.95,0.27 0,0 -0.14,-4.31 -0.14,-4.42 0,-0.08 -0.02,-0.15 -0.06,-0.2 -0.04,-0.04 -0.1,-0.07 -0.17,-0.07 -0.07,0 -0.13,0.03 -0.16,0.08 -0.04,0.05 -0.06,0.1 -0.05,0.19 0,0.26 0.15,4.57 0.15,4.57 -0.32,0.11 -0.64,0.23 -0.95,0.36 l -0.74,-5.49 c 1.13,-0.44 2.3,-0.78 3.48,-1.02 l -0.39,5.74 z m -3.67,1.39 -0.98,-4.12 c -0.02,-0.07 -0.05,-0.12 -0.1,-0.16 -0.05,-0.04 -0.12,-0.05 -0.19,-0.03 -0.07,0.02 -0.11,0.05 -0.14,0.11 -0.03,0.05 -0.03,0.13 -0.01,0.2 l 1.01,4.21 c -0.27,0.15 -0.54,0.31 -0.8,0.48 l -1.71,-5.08 c 0.98,-0.6 2.02,-1.12 3.07,-1.55 l 0.74,5.5 c -0.3,0.13 -0.6,0.28 -0.89,0.43 z m -2.5,1.6 c 0,0 -1.61,-3.71 -1.67,-3.84 -0.03,-0.07 -0.07,-0.11 -0.13,-0.13 -0.06,-0.02 -0.11,-0.02 -0.17,0 -0.05,0.02 -0.09,0.06 -0.12,0.11 -0.03,0.06 -0.03,0.13 0,0.2 l 1.71,3.95 c -0.23,0.19 -0.46,0.38 -0.67,0.58 l -2.6,-4.48 c 0.89,-0.78 1.84,-1.49 2.83,-2.12 l 1.71,5.09 c -0.31,0.2 -0.61,0.42 -0.9,0.64 z m -2.11,1.92 -2.39,-3.28 c -0.04,-0.05 -0.09,-0.09 -0.15,-0.1 -0.06,-0.01 -0.12,0 -0.18,0.04 -0.05,0.04 -0.08,0.09 -0.09,0.15 0,0.06 0,0.13 0.05,0.19 l 2.44,3.35 c -0.22,0.25 -0.43,0.5 -0.63,0.75 l -3.3,-3.81 c 0.73,-0.89 1.52,-1.73 2.37,-2.5 L 24.4,19 c -0.26,0.24 -0.5,0.49 -0.74,0.74 z m -1.87,2.37 c 0,0 -2.48,-2.37 -2.79,-2.68 -0.05,-0.05 -0.1,-0.08 -0.15,-0.09 -0.07,-0.01 -0.14,0.01 -0.19,0.06 -0.05,0.05 -0.07,0.12 -0.06,0.18 0.01,0.06 0.04,0.12 0.09,0.16 0.22,0.21 2.86,2.75 2.86,2.75 -0.15,0.25 -0.3,0.5 -0.44,0.75 l -3.92,-2.99 c 0.57,-1 1.23,-1.98 1.95,-2.89 l 3.3,3.82 c -0.23,0.31 -0.45,0.62 -0.65,0.93 z m -2.27,5.18 c 0,0 -3.42,-1.08 -3.57,-1.12 -0.07,-0.02 -0.14,-0.02 -0.2,0 -0.06,0.02 -0.11,0.07 -0.13,0.13 -0.02,0.06 -0.01,0.12 0.01,0.18 0.02,0.06 0.08,0.1 0.15,0.12 0.26,0.08 3.62,1.14 3.62,1.14 -0.07,0.32 -0.13,0.63 -0.18,0.94 L 14.49,27.69 C 14.7,26.51 15,25.33 15.4,24.19 l 4.38,2.18 c -0.1,0.31 -0.18,0.62 -0.26,0.91 z m -0.46,4.92 c 0.02,0.37 0.05,0.74 0.1,1.11 0,0 -3.65,0.34 -3.76,0.35 -0.07,0 -0.13,0.03 -0.17,0.07 -0.05,0.05 -0.07,0.11 -0.07,0.18 0,0.06 0.03,0.11 0.08,0.15 0.05,0.04 0.12,0.06 0.2,0.05 0.24,-0.02 3.78,-0.35 3.78,-0.35 0.05,0.33 0.11,0.67 0.18,0.99 l -4.78,1.02 c -0.25,-1.2 -0.4,-2.44 -0.44,-3.67 z m 0,-1.87 c 0,0 -3.59,-0.4 -3.71,-0.41 -0.07,0 -0.14,0 -0.19,0.04 -0.06,0.03 -0.1,0.09 -0.1,0.15 0,0.07 0,0.12 0.05,0.17 0.04,0.05 0.11,0.08 0.19,0.09 0.13,0.02 3.75,0.41 3.75,0.41 0,0.32 0,0.65 0,0.97 l -4.87,-0.1 c -0.01,-1.17 0.07,-2.36 0.25,-3.53 l 4.76,0.98 c -0.05,0.41 -0.09,0.82 -0.11,1.22 z m 4.44,16.94 c -0.11,-1.31 0.68,-2.59 2.29,-3.68 0.15,0.3 0.27,0.59 0.37,0.88 -1.29,0.78 -1.8,1.65 -1.8,2.53 0,1.04 0.74,2.04 1.66,2.75 0.66,0.51 1.29,0.81 1.9,1.01 0.07,0.02 0.11,0.02 0.13,0.02 0.03,0 0.05,-0.01 0.1,-0.04 1.51,-0.77 2.64,-1.73 3.43,-3.24 0.51,-0.96 0.83,-2.36 0.7,-3.9 0.3,0.32 0.67,0.56 1.08,0.7 0.04,1.37 -0.39,2.9 -1.14,4.14 -0.65,1.08 -1.46,1.92 -2.55,2.61 -0.68,0.43 -1.43,0.72 -1.74,0.83 -2.68,-1.25 -4.29,-2.93 -4.43,-4.61 z m 6.33,4.2 c 1.83,0.35 5.41,1.46 7.44,2.25 -0.11,0 -0.24,0 -0.33,0 -3.01,0 -5.99,-0.56 -8.43,-1.58 0.61,-0.26 0.89,-0.41 1.32,-0.67 z m 19.08,-9.23 z"
         id="path3"
         style="fill:#1a1a1a;fill-opacity:1;stroke-width:0px" /><path
         class="cls-1"
         d="m 42.89,20.56 c 0.25,0 0.45,-0.2 0.45,-0.45 0,-0.25 -0.2,-0.45 -0.45,-0.45 -0.25,0 -0.45,0.2 -0.45,0.45 0,0.25 0.2,0.45 0.45,0.45 z"
         id="path4"
         style="fill:#1a1a1a;fill-opacity:1;stroke-width:0px" /><path
         class="cls-1"
         d="m 40.75,23.17 c 0.2,0 0.36,-0.16 0.36,-0.36 0,-0.2 -0.16,-0.36 -0.36,-0.36 -0.2,0 -0.36,0.16 -0.36,0.36 0,0.2 0.16,0.36 0.36,0.36 z"
         id="path5"
         style="fill:#1a1a1a;fill-opacity:1;stroke-width:0px" /><path
         class="cls-1"
         d="m 41.8,21.82 c 0.23,0 0.41,-0.18 0.41,-0.41 0,-0.23 -0.18,-0.41 -0.41,-0.41 -0.23,0 -0.41,0.18 -0.41,0.41 0,0.23 0.18,0.41 0.41,0.41 z"
         id="path6"
         style="fill:#1a1a1a;fill-opacity:1;stroke-width:0px" /><path
         class="cls-1"
         d="m 28.65,19.47 c 0.24,0 0.44,-0.2 0.44,-0.44 0,-0.24 -0.2,-0.44 -0.44,-0.44 -0.24,0 -0.44,0.2 -0.44,0.44 0,0.24 0.2,0.44 0.44,0.44 z"
         id="path7"
         style="fill:#1a1a1a;fill-opacity:1;stroke-width:0px" /><path
         class="cls-1"
         d="m 46.63,29.71 c -1.02,0.01 -1.92,0.13 -2.68,0.37 -0.41,0.13 -0.89,0.33 -1.25,0.54 -0.45,0.26 -0.81,0.55 -1.05,0.82 -0.1,0.12 -0.06,0.25 0.01,0.32 0.08,0.07 0.24,0.09 0.34,-0.04 0.66,0.27 1.52,0.43 2.48,0.46 0.63,0.02 1.42,-0.04 1.74,-0.11 0.39,-0.08 0.64,-0.61 0.59,-1.23 -0.01,-0.13 -0.04,-0.26 -0.08,-0.38 0.28,-0.09 0.58,-0.23 0.58,-0.48 0,-0.09 -0.04,-0.16 -0.11,-0.2 -0.08,-0.04 -0.27,-0.06 -0.56,-0.06 z m -2.08,0.67 c 0.27,-0.06 0.54,-0.11 0.82,-0.14 -0.09,0.21 -0.13,0.47 -0.11,0.73 0.02,0.27 0.11,0.52 0.25,0.72 -0.24,0.02 -0.52,0.03 -0.81,0.03 -0.15,-0.39 -0.19,-0.8 -0.14,-1.35 z m -2.17,0.99 c 0.48,-0.37 1.06,-0.66 1.72,-0.86 -0.03,0.46 0.01,0.85 0.12,1.21 -0.63,-0.04 -1.26,-0.16 -1.84,-0.35 z"
         id="path8"
         style="fill:#1a1a1a;fill-opacity:1;stroke-width:0px" /></g></g><style
     type="text/css"
     id="style1-8">
	.st0{fill:#FFFFFF;}
</style><style
     type="text/css"
     id="style1-6">
	.st0{fill:#05171D;}
</style></svg>
